# Blender v3.1.2 OBJ File: 'fence2.blend'
# www.blender.org
mtllib fence2.mtl
o Cylinder.004_Cylinder.006
v 1.500000 0.497157 0.043307
v 1.500000 0.482187 -0.062256
v 1.500000 0.377644 -0.105348
v -1.500000 0.427914 -0.100259
v -1.500000 0.330306 -0.077290
v -1.500000 0.301957 0.051281
v 1.500000 0.297398 -0.017431
v 1.500000 0.330306 0.077290
v 1.500000 0.414800 0.101184
v -1.500000 0.450581 0.096690
v -1.500000 0.502371 -0.024071
v -1.642566 0.000000 -0.063599
v -1.632062 1.500000 -0.075897
v -1.541048 0.000000 -0.147797
v -1.544846 1.500000 -0.148011
v -1.396993 1.500000 -0.119469
v -1.401949 0.000000 -0.123569
v -1.347709 0.000000 -0.002888
v -1.396993 0.000000 0.119469
v -1.348043 1.500000 0.042336
v -1.455154 1.500000 0.148011
v -1.525700 0.000000 0.150134
v -1.630089 0.000000 0.086294
v -1.576514 1.500000 0.132946
v -1.650535 1.500000 0.035464
v 1.397205 1.500000 -0.113852
v 1.385170 0.000000 -0.103598
v 1.522692 1.500000 -0.154450
v 1.526393 0.000000 -0.155521
v 1.651957 0.000000 -0.042336
v 1.652728 1.500000 -0.046183
v 1.609142 0.000000 0.111615
v 1.583729 1.500000 0.138148
v 1.493320 0.000000 0.152171
v 1.389396 0.000000 0.108098
v 1.396993 1.500000 0.119469
v 1.347709 0.000000 0.002888
v 1.347129 1.500000 -0.012626
v 1.500000 1.304840 0.024627
v 1.500000 1.272692 -0.070904
v -1.500000 1.162879 -0.099685
v 1.500000 1.170683 -0.105109
v -1.500000 1.092546 0.032461
v 1.500000 1.096022 -0.004434
v 1.500000 1.174350 0.109281
v -1.500000 1.238063 0.102267
v -1.500000 1.302539 -0.045673
vt 0.250000 0.051950
vt 0.000333 0.103571
vt 0.000333 0.022422
vt 0.250000 0.141694
vt 0.000333 0.183304
vt 0.250000 0.236861
vt 0.000333 0.289002
vt 0.250000 0.464767
vt 0.000333 0.488433
vt 0.000333 0.412648
vt 0.250000 0.601872
vt 0.000333 0.603520
vt 0.000333 0.533681
vt 0.250000 0.771457
vt 0.000333 0.818414
vt 0.000333 0.748503
vt 0.250000 0.851300
vt 0.000333 0.888327
vt 0.250000 0.916246
vt 0.000333 0.953320
vt 0.250000 0.978507
vt 0.000333 0.999667
vt 0.750666 0.011389
vt 0.500999 0.058569
vt 0.500999 0.009072
vt 0.750666 0.227010
vt 0.500999 0.228528
vt 0.500999 0.138619
vt 0.750666 0.331727
vt 0.500999 0.378278
vt 0.500999 0.313072
vt 0.750666 0.431296
vt 0.500999 0.438229
vt 0.722150 0.601006
vt 0.555350 0.515709
vt 0.502479 0.668410
vt 0.500333 0.146345
vt 0.250666 0.153789
vt 0.250666 0.041245
vt 0.250000 0.316535
vt 0.250000 0.386286
vt 0.500333 0.356549
vt 0.250666 0.402747
vt 0.250666 0.272816
vt 0.500333 0.472072
vt 0.250666 0.490460
vt 0.266015 0.897594
vt 0.469716 0.802859
vt 0.343082 0.975323
vt 0.250000 0.006214
vt 0.569726 0.969328
vt 0.533800 0.771644
vt 0.715961 0.815732
vt 0.923407 0.461299
vt 0.934719 0.264861
vt 0.789581 0.432860
vt 0.000333 0.678310
vt 0.250000 0.681629
vt 0.250000 0.504494
vt 0.250000 0.541828
vt 0.389766 0.735607
vt 0.477912 0.571995
vt 0.302729 0.523440
vt 0.744014 0.812971
vt 0.895581 0.969326
vt 0.741899 0.905661
vt 0.750666 0.066802
vt 0.750666 0.136775
vt 0.500999 0.493083
vt 0.750666 0.489691
vt 0.895204 0.517512
vt 0.845047 0.737152
vt 0.763192 0.551673
vt 0.500333 0.246798
vt 0.500333 0.009540
vt 0.500333 0.061739
vt 0.962844 0.055727
vt 0.781175 0.181868
vt 0.936262 0.202464
vt 0.648179 0.511757
vt 0.500398 0.582169
vt 0.565121 0.727158
vt 0.675162 0.713400
vt 0.335652 0.761297
vt 0.450745 0.933861
vt 0.687410 0.939647
vt 0.499025 0.876376
vt 0.629361 0.747194
vt 0.985854 0.362877
vt 0.798517 0.281596
vt 0.471956 0.670863
vt 0.400605 0.510639
vt 0.256454 0.603746
vt 0.295247 0.707214
vt 0.833660 0.748050
vt 0.944762 0.797772
vt 0.956084 0.907720
vt 0.809348 0.969274
vt 0.964935 0.617816
vt 0.926446 0.708949
vt 0.755270 0.682920
vt 0.817069 0.029842
vn -0.0041 0.7152 -0.6989
vn -0.0055 -0.2291 -0.9734
vn -0.0064 -0.9765 -0.2153
vn -0.0073 0.9190 0.3941
vn -0.6384 -0.0017 -0.7697
vn 0.9275 -0.0111 0.3736
vn 0.2318 -0.0095 0.9727
vn -0.5217 -0.0079 0.8531
vn -0.9965 -0.0108 0.0829
vn -0.9433 -0.0038 -0.3319
vn 0.6695 -0.0022 -0.7428
vn 0.3305 -0.0111 0.9438
vn -0.3904 -0.0050 0.9206
vn 0.0000 -1.0000 0.0000
vn -0.0026 0.3607 -0.9327
vn -0.0047 -0.2721 0.9623
vn -0.0113 -0.4325 0.9016
vn -0.0101 0.9167 0.3995
vn 1.0000 0.0000 0.0000
vn 0.0049 0.9901 -0.1404
vn 0.0048 0.3811 -0.9245
vn 0.0053 -0.7386 -0.6741
vn 0.0061 -0.9446 0.3282
vn 0.0056 0.5750 0.8182
vn -1.0000 0.0000 0.0000
vn 0.1895 0.0021 -0.9819
vn -0.9865 0.0056 -0.1636
vn -0.6372 -0.0019 -0.7707
vn 0.9571 0.0089 -0.2896
vn 0.7023 0.0137 0.7118
vn -0.1232 0.0072 0.9924
vn -0.7964 0.0096 0.6047
vn 0.0000 1.0000 0.0000
vn -0.3078 -0.0001 -0.9514
vn -0.8963 0.0042 -0.4434
vn 0.9365 0.0097 0.3506
vn 0.6398 0.0021 -0.7685
vn -0.9356 0.0033 0.3532
vn -0.0995 0.0153 0.9949
vn -0.0048 -0.8827 -0.4698
vn 0.0067 0.9478 -0.3189
vn -0.0048 0.3179 -0.9481
vn 0.0079 -0.8235 0.5672
vn 0.0096 0.5442 0.8389
vn -0.0055 -0.2922 0.9563
vn 0.1716 0.0003 -0.9852
vn 0.9121 -0.0019 -0.4099
vn -0.3451 -0.0036 -0.9386
vn 0.9634 0.0002 0.2679
vn -0.9297 0.0019 0.3684
vn 0.0010 -0.8032 -0.5957
usemtl Material.004
s off
f 2/1/1 4/2/1 11/3/1
f 3/4/2 5/5/2 4/2/2
f 7/6/3 6/7/3 5/5/3
f 1/8/4 11/9/4 10/10/4
f 15/11/5 14/12/5 12/13/5
f 20/14/6 19/15/6 18/16/6
f 21/17/7 22/18/7 19/15/7
f 24/19/8 23/20/8 22/18/8
f 25/21/9 12/22/9 23/20/9
f 38/23/10 27/24/10 37/25/10
f 31/26/11 30/27/11 29/28/11
f 33/29/12 34/30/12 32/31/12
f 36/32/13 35/33/13 34/30/13
f 30/34/14 34/35/14 37/36/14
f 42/37/15 41/38/15 47/39/15
f 10/10/16 8/40/16 9/41/16
f 45/42/17 46/43/17 43/44/17
f 39/45/18 47/46/18 46/43/18
f 39/47/19 44/48/19 40/49/19
f 1/50/20 2/1/20 11/3/20
f 2/1/21 3/4/21 4/2/21
f 3/4/22 7/6/22 5/5/22
f 7/6/23 8/40/23 6/7/23
f 9/41/24 1/8/24 10/10/24
f 2/51/19 9/52/19 7/53/19
f 11/54/25 5/55/25 10/56/25
f 17/57/26 15/11/26 16/58/26
f 25/59/27 13/60/27 12/13/27
f 13/60/28 15/11/28 12/13/28
f 18/16/29 16/58/29 20/14/29
f 14/61/14 18/62/14 22/63/14
f 20/14/30 21/17/30 19/15/30
f 21/17/31 24/19/31 22/18/31
f 24/19/32 25/21/32 23/20/32
f 21/64/33 13/65/33 24/66/33
f 29/28/34 26/67/34 28/68/34
f 38/23/35 26/67/35 27/24/35
f 32/31/36 31/26/36 33/29/36
f 28/68/37 31/26/37 29/28/37
f 37/69/38 36/32/38 38/70/38
f 33/29/39 36/32/39 34/30/39
f 31/71/33 38/72/33 33/73/33
f 41/38/40 44/74/40 43/44/40
f 39/75/41 40/76/41 47/39/41
f 40/76/42 42/37/42 47/39/42
f 44/74/43 45/42/43 43/44/43
f 45/42/44 39/45/44 46/43/44
f 41/77/25 46/78/25 47/79/25
f 30/34/14 32/80/14 34/35/14
f 34/35/14 35/81/14 37/36/14
f 37/36/14 27/82/14 30/34/14
f 27/82/14 29/83/14 30/34/14
f 10/10/45 6/7/45 8/40/45
f 45/84/19 44/48/19 39/47/19
f 44/48/19 42/85/19 40/49/19
f 3/86/19 2/51/19 7/53/19
f 2/51/19 1/87/19 9/52/19
f 7/53/19 9/52/19 8/88/19
f 4/89/25 5/55/25 11/54/25
f 5/55/25 6/90/25 10/56/25
f 17/57/46 14/12/46 15/11/46
f 18/16/47 17/57/47 16/58/47
f 14/61/14 17/91/14 18/62/14
f 18/62/14 19/92/14 22/63/14
f 22/63/14 23/93/14 12/94/14
f 12/94/14 14/61/14 22/63/14
f 20/95/33 16/96/33 21/64/33
f 16/96/33 15/97/33 21/64/33
f 15/97/33 13/65/33 21/64/33
f 13/65/33 25/98/33 24/66/33
f 29/28/48 27/24/48 26/67/48
f 32/31/49 30/27/49 31/26/49
f 37/69/50 35/33/50 36/32/50
f 31/71/33 28/99/33 26/100/33
f 26/100/33 38/72/33 31/71/33
f 38/72/33 36/101/33 33/73/33
f 41/38/51 42/37/51 44/74/51
f 41/77/25 43/102/25 46/78/25
