# Blender v3.1.2 OBJ File: 'untitled.blend'
# www.blender.org
mtllib drzewo.mtl
o Icosphere
v 0.000000 5.690611 -0.000000
v -1.400195 4.857294 -0.903231
v 0.534817 4.857294 -1.461472
v 1.730733 4.857288 -0.000000
v 0.534817 4.857294 1.461472
v -1.400195 4.857294 0.903231
v -0.534817 3.508925 -1.461472
v 1.400195 3.508926 -0.903231
v 1.400195 3.508926 0.903231
v -0.534817 3.508925 1.461472
v -1.730733 3.508932 0.000000
v 0.000000 2.675609 0.000000
v 0.314355 5.465472 -0.859025
v -0.823008 5.465472 -0.530902
v -0.508657 4.975659 -1.389936
v -1.646021 4.975657 -0.000000
v -0.823008 5.465472 0.530902
v 1.017298 5.465468 -0.000000
v 1.331661 4.975657 -0.859028
v 0.314355 5.465472 0.859025
v 1.331661 4.975657 0.859028
v -0.508657 4.975660 1.389936
v -1.840317 4.183110 -0.530904
v -1.840317 4.183110 0.530904
v 0.000000 4.183110 -1.718066
v -1.137377 4.183110 -1.389944
v 1.840317 4.183110 -0.530904
v 1.137377 4.183110 -1.389944
v 1.137377 4.183110 1.389944
v 1.840317 4.183110 0.530904
v -1.137377 4.183110 1.389944
v 0.000000 4.183110 1.718066
v -1.331661 3.390562 -0.859028
v 0.508657 3.390560 -1.389936
v 1.646021 3.390563 0.000000
v 0.508657 3.390560 1.389936
v -1.331661 3.390562 0.859028
v -0.314355 2.900747 -0.859025
v -1.017298 2.900752 0.000000
v 0.823008 2.900748 -0.530902
v 0.823008 2.900748 0.530902
v -0.314355 2.900748 0.859025
vt 0.181819 0.000000
vt 0.136365 0.078731
vt 0.227273 0.078731
vt 0.272728 0.157461
vt 0.363637 0.157461
vt 0.318182 0.078731
vt 0.909091 0.000000
vt 0.863636 0.078731
vt 0.954545 0.078731
vt 0.727273 0.000000
vt 0.681818 0.078731
vt 0.772727 0.078731
vt 0.545455 0.000000
vt 0.500000 0.078731
vt 0.590909 0.078731
vt 0.318182 0.236191
vt 0.090910 0.157461
vt 0.136365 0.236191
vt 0.181819 0.157461
vt 0.818182 0.157461
vt 0.863636 0.236191
vt 0.909091 0.157461
vt 0.636364 0.157461
vt 0.681818 0.236191
vt 0.727273 0.157461
vt 0.454546 0.157461
vt 0.500000 0.236191
vt 0.545455 0.157461
vt 0.227273 0.236191
vt 0.045455 0.236191
vt 0.772727 0.236191
vt 0.590909 0.236191
vt 0.409092 0.236191
vt 0.181819 0.314921
vt 0.227273 0.393651
vt 0.272728 0.314921
vt 0.000000 0.314921
vt 0.045455 0.393651
vt 0.090910 0.314921
vt 0.727273 0.314921
vt 0.772727 0.393651
vt 0.818182 0.314921
vt 0.545455 0.314921
vt 0.590909 0.393651
vt 0.636364 0.314921
vt 0.363637 0.314921
vt 0.409092 0.393651
vt 0.454546 0.314921
vt 0.454546 0.472382
vt 0.500000 0.393651
vt 0.636364 0.472382
vt 0.681818 0.393651
vt 0.818182 0.472382
vt 0.863636 0.393651
vt 0.909091 0.314921
vt 0.090910 0.472382
vt 0.136365 0.393651
vt 0.272728 0.472382
vt 0.318182 0.393651
vt 0.954545 0.236191
vt 1.000000 0.157461
vt 0.409092 0.078731
vt 0.363637 0.000000
vn -0.0809 0.9565 -0.2803
vn -0.6135 0.7441 -0.2645
vn 0.2128 0.9615 -0.1741
vn 0.2128 0.9615 0.1741
vn -0.0809 0.9565 0.2803
vn -0.8668 0.4062 -0.2891
vn -0.0216 0.3706 -0.9286
vn 0.8493 0.4048 -0.3388
vn 0.5200 0.3838 0.7631
vn -0.4814 0.3819 0.7889
vn -0.7647 0.1536 -0.6258
vn 0.2743 0.1443 -0.9508
vn 0.9870 0.1604 0.0000
vn 0.2743 0.1443 0.9508
vn -0.7647 0.1536 0.6258
vn -0.3469 -0.7205 -0.6004
vn 0.4019 -0.7244 -0.5601
vn 0.6135 -0.7441 0.2645
vn -0.0322 -0.7092 0.7042
vn -0.6366 -0.7467 0.1928
vn -0.2128 -0.9615 0.1741
vn -0.4088 -0.8491 0.3345
vn -0.3469 -0.7205 0.6004
vn 0.0809 -0.9565 0.2803
vn 0.1532 -0.8333 0.5312
vn 0.4019 -0.7244 0.5601
vn 0.2639 -0.9646 0.0000
vn 0.5114 -0.8593 0.0000
vn 0.6135 -0.7441 -0.2645
vn 0.0809 -0.9565 -0.2803
vn 0.1532 -0.8333 -0.5312
vn -0.0322 -0.7092 -0.7042
vn -0.2128 -0.9615 -0.1741
vn -0.4088 -0.8491 -0.3345
vn -0.6366 -0.7467 -0.1928
vn -0.8493 -0.4048 0.3388
vn -0.7535 -0.2283 0.6166
vn -0.5200 -0.3838 0.7631
vn 0.0216 -0.3706 0.9286
vn 0.2707 -0.2148 0.9384
vn 0.4814 -0.3819 0.7889
vn 0.8668 -0.4062 0.2891
vn 0.9712 -0.2381 0.0000
vn 0.8668 -0.4062 -0.2891
vn 0.4814 -0.3819 -0.7889
vn 0.2707 -0.2148 -0.9384
vn 0.0216 -0.3706 -0.9286
vn -0.5200 -0.3838 -0.7631
vn -0.7535 -0.2283 -0.6166
vn -0.8493 -0.4048 -0.3388
vn -0.2743 -0.1443 0.9508
vn -0.2707 0.2148 0.9384
vn -0.0216 0.3706 0.9286
vn 0.7647 -0.1536 0.6258
vn 0.7535 0.2283 0.6166
vn 0.8493 0.4048 0.3388
vn 0.7647 -0.1536 -0.6258
vn 0.7535 0.2283 -0.6166
vn 0.5200 0.3838 -0.7631
vn -0.2743 -0.1443 -0.9508
vn -0.2707 0.2148 -0.9384
vn -0.4814 0.3819 -0.7889
vn -0.9870 -0.1604 0.0000
vn -0.9712 0.2381 0.0000
vn -0.8668 0.4062 0.2891
vn -0.4019 0.7244 0.5601
vn -0.1532 0.8333 0.5312
vn 0.0322 0.7093 0.7042
vn 0.3469 0.7205 0.6004
vn 0.4088 0.8491 0.3345
vn 0.6366 0.7467 0.1928
vn 0.6366 0.7467 -0.1928
vn 0.4088 0.8491 -0.3345
vn 0.3469 0.7205 -0.6004
vn -0.6135 0.7441 0.2645
vn -0.5114 0.8593 0.0000
vn -0.2639 0.9646 0.0000
vn 0.0322 0.7092 -0.7042
vn -0.1532 0.8333 -0.5312
vn -0.4019 0.7244 -0.5601
usemtl None
s off
f 1/1/1 13/2/1 14/3/1
f 2/4/2 16/5/2 14/6/2
f 1/7/3 18/8/3 13/9/3
f 1/10/4 20/11/4 18/12/4
f 1/13/5 17/14/5 20/15/5
f 2/4/6 23/16/6 16/5/6
f 3/17/7 25/18/7 15/19/7
f 4/20/8 27/21/8 19/22/8
f 5/23/9 29/24/9 21/25/9
f 6/26/10 31/27/10 22/28/10
f 2/4/11 26/29/11 23/16/11
f 3/17/12 28/30/12 25/18/12
f 4/20/13 30/31/13 27/21/13
f 5/23/14 32/32/14 29/24/14
f 6/26/15 24/33/15 31/27/15
f 7/34/16 38/35/16 33/36/16
f 8/37/17 40/38/17 34/39/17
f 9/40/18 41/41/18 35/42/18
f 10/43/19 42/44/19 36/45/19
f 11/46/20 39/47/20 37/48/20
f 39/47/21 12/49/21 42/50/21
f 39/47/22 42/50/22 37/48/22
f 37/48/23 42/50/23 10/43/23
f 42/44/24 12/51/24 41/52/24
f 42/44/25 41/52/25 36/45/25
f 36/45/26 41/52/26 9/40/26
f 41/41/27 12/53/27 40/54/27
f 41/41/28 40/54/28 35/42/28
f 35/42/29 40/54/29 8/55/29
f 40/38/30 12/56/30 38/57/30
f 40/38/31 38/57/31 34/39/31
f 34/39/32 38/57/32 7/34/32
f 38/35/33 12/58/33 39/59/33
f 38/35/34 39/59/34 33/36/34
f 33/36/35 39/59/35 11/46/35
f 24/33/36 11/46/36 37/48/36
f 24/33/37 37/48/37 31/27/37
f 31/27/38 37/48/38 10/43/38
f 32/32/39 10/43/39 36/45/39
f 32/32/40 36/45/40 29/24/40
f 29/24/41 36/45/41 9/40/41
f 30/31/42 9/40/42 35/42/42
f 30/31/43 35/42/43 27/21/43
f 27/21/44 35/42/44 8/55/44
f 28/30/45 8/37/45 34/39/45
f 28/30/46 34/39/46 25/18/46
f 25/18/47 34/39/47 7/34/47
f 26/29/48 7/34/48 33/36/48
f 26/29/49 33/36/49 23/16/49
f 23/16/50 33/36/50 11/46/50
f 31/27/51 10/43/51 32/32/51
f 31/27/52 32/32/52 22/28/52
f 22/28/53 32/32/53 5/23/53
f 29/24/54 9/40/54 30/31/54
f 29/24/55 30/31/55 21/25/55
f 21/25/56 30/31/56 4/20/56
f 27/21/57 8/55/57 28/60/57
f 27/21/58 28/60/58 19/22/58
f 19/22/59 28/60/59 3/61/59
f 25/18/60 7/34/60 26/29/60
f 25/18/61 26/29/61 15/19/61
f 15/19/62 26/29/62 2/4/62
f 23/16/63 11/46/63 24/33/63
f 23/16/64 24/33/64 16/5/64
f 16/5/65 24/33/65 6/26/65
f 17/14/66 6/26/66 22/28/66
f 17/14/67 22/28/67 20/15/67
f 20/15/68 22/28/68 5/23/68
f 20/11/69 5/23/69 21/25/69
f 20/11/70 21/25/70 18/12/70
f 18/12/71 21/25/71 4/20/71
f 18/8/72 4/20/72 19/22/72
f 18/8/73 19/22/73 13/9/73
f 13/9/74 19/22/74 3/61/74
f 16/5/75 6/26/75 17/62/75
f 16/5/76 17/62/76 14/6/76
f 14/6/77 17/62/77 1/63/77
f 13/2/78 3/17/78 15/19/78
f 13/2/79 15/19/79 14/3/79
f 14/3/80 15/19/80 2/4/80
o Cylinder
v 0.000000 -0.040000 -0.240000
v 0.000000 3.340000 -0.240000
v 0.046822 -0.040000 -0.235388
v 0.046822 3.340000 -0.235388
v 0.091844 -0.040000 -0.221731
v 0.091844 3.340000 -0.221731
v 0.133337 -0.040000 -0.199553
v 0.133337 3.340000 -0.199553
v 0.169706 -0.040000 -0.169706
v 0.169706 3.340000 -0.169706
v 0.199553 -0.040000 -0.133337
v 0.199553 3.340000 -0.133337
v 0.221731 -0.040000 -0.091844
v 0.221731 3.340000 -0.091844
v 0.235388 -0.040000 -0.046822
v 0.235388 3.340000 -0.046822
v 0.240000 -0.040000 0.000000
v 0.240000 3.340000 0.000000
v 0.235388 -0.040000 0.046822
v 0.235388 3.340000 0.046822
v 0.221731 -0.040000 0.091844
v 0.221731 3.340000 0.091844
v 0.199553 -0.040000 0.133337
v 0.199553 3.340000 0.133337
v 0.169706 -0.040000 0.169706
v 0.169706 3.340000 0.169706
v 0.133337 -0.040000 0.199553
v 0.133337 3.340000 0.199553
v 0.091844 -0.040000 0.221731
v 0.091844 3.340000 0.221731
v 0.046822 -0.040000 0.235388
v 0.046822 3.340000 0.235388
v -0.000000 -0.040000 0.240000
v -0.000000 3.340000 0.240000
v -0.046822 -0.040000 0.235388
v -0.046822 3.340000 0.235388
v -0.091844 -0.040000 0.221731
v -0.091844 3.340000 0.221731
v -0.133337 -0.040000 0.199553
v -0.133337 3.340000 0.199553
v -0.169706 -0.040000 0.169706
v -0.169706 3.340000 0.169706
v -0.199553 -0.040000 0.133337
v -0.199553 3.340000 0.133337
v -0.221731 -0.040000 0.091844
v -0.221731 3.340000 0.091844
v -0.235388 -0.040000 0.046822
v -0.235388 3.340000 0.046822
v -0.240000 -0.040000 -0.000000
v -0.240000 3.340000 -0.000000
v -0.235388 -0.040000 -0.046822
v -0.235388 3.340000 -0.046822
v -0.221731 -0.040000 -0.091844
v -0.221731 3.340000 -0.091844
v -0.199553 -0.040000 -0.133337
v -0.199553 3.340000 -0.133337
v -0.169706 -0.040000 -0.169706
v -0.169706 3.340000 -0.169706
v -0.133337 -0.040000 -0.199553
v -0.133337 3.340000 -0.199553
v -0.091844 -0.040000 -0.221731
v -0.091844 3.340000 -0.221731
v -0.046822 -0.040000 -0.235388
v -0.046822 3.340000 -0.235388
vt 1.000000 1.000000
vt 0.968750 0.500000
vt 1.000000 0.500000
vt 0.968750 1.000000
vt 0.937500 0.500000
vt 0.937500 1.000000
vt 0.906250 0.500000
vt 0.906250 1.000000
vt 0.875000 0.500000
vt 0.875000 1.000000
vt 0.843750 0.500000
vt 0.843750 1.000000
vt 0.812500 0.500000
vt 0.812500 1.000000
vt 0.781250 0.500000
vt 0.781250 1.000000
vt 0.750000 0.500000
vt 0.750000 1.000000
vt 0.718750 0.500000
vt 0.718750 1.000000
vt 0.687500 0.500000
vt 0.687500 1.000000
vt 0.656250 0.500000
vt 0.656250 1.000000
vt 0.625000 0.500000
vt 0.625000 1.000000
vt 0.593750 0.500000
vt 0.593750 1.000000
vt 0.562500 0.500000
vt 0.562500 1.000000
vt 0.531250 0.500000
vt 0.531250 1.000000
vt 0.500000 0.500000
vt 0.500000 1.000000
vt 0.468750 0.500000
vt 0.468750 1.000000
vt 0.437500 0.500000
vt 0.437500 1.000000
vt 0.406250 0.500000
vt 0.406250 1.000000
vt 0.375000 0.500000
vt 0.375000 1.000000
vt 0.343750 0.500000
vt 0.343750 1.000000
vt 0.312500 0.500000
vt 0.312500 1.000000
vt 0.281250 0.500000
vt 0.281250 1.000000
vt 0.250000 0.500000
vt 0.250000 1.000000
vt 0.218750 0.500000
vt 0.218750 1.000000
vt 0.187500 0.500000
vt 0.187500 1.000000
vt 0.156250 0.500000
vt 0.156250 1.000000
vt 0.125000 0.500000
vt 0.125000 1.000000
vt 0.093750 0.500000
vt 0.093750 1.000000
vt 0.062500 0.500000
vt 0.028269 0.341844
vt 0.158156 0.028269
vt 0.471731 0.158156
vt 0.062500 1.000000
vt 0.031250 0.500000
vt 0.031250 1.000000
vt 0.000000 0.500000
vt 0.985388 0.296822
vt 0.796822 0.014612
vt 0.514612 0.203178
vt 0.341844 0.471731
vt 0.296822 0.485388
vt 0.158156 0.471731
vt 0.250000 0.490000
vt 0.203178 0.485388
vt 0.116663 0.449553
vt 0.080294 0.419706
vt 0.050447 0.383337
vt 0.014612 0.296822
vt 0.010000 0.250000
vt 0.014612 0.203178
vt 0.028269 0.158156
vt 0.050447 0.116663
vt 0.080294 0.080294
vt 0.116663 0.050447
vt 0.203178 0.014612
vt 0.250000 0.010000
vt 0.296822 0.014612
vt 0.341844 0.028269
vt 0.383337 0.050447
vt 0.419706 0.080294
vt 0.449553 0.116663
vt 0.485388 0.203178
vt 0.490000 0.250000
vt 0.485388 0.296822
vt 0.471731 0.341844
vt 0.449553 0.383337
vt 0.419706 0.419706
vt 0.383337 0.449553
vt 0.000000 1.000000
vt 0.703178 0.485388
vt 0.750000 0.490000
vt 0.796822 0.485388
vt 0.841844 0.471731
vt 0.883337 0.449553
vt 0.919706 0.419706
vt 0.949553 0.383337
vt 0.971731 0.341844
vt 0.990000 0.250000
vt 0.985388 0.203178
vt 0.971731 0.158156
vt 0.949553 0.116663
vt 0.919706 0.080294
vt 0.883337 0.050447
vt 0.841844 0.028269
vt 0.750000 0.010000
vt 0.703178 0.014612
vt 0.658156 0.028269
vt 0.616663 0.050447
vt 0.580294 0.080294
vt 0.550447 0.116663
vt 0.528269 0.158156
vt 0.510000 0.250000
vt 0.514612 0.296822
vt 0.528269 0.341844
vt 0.550447 0.383337
vt 0.580294 0.419706
vt 0.616663 0.449553
vt 0.658156 0.471731
vn 0.0980 0.0000 -0.9952
vn 0.2903 0.0000 -0.9569
vn 0.4714 0.0000 -0.8819
vn 0.6344 0.0000 -0.7730
vn 0.7730 0.0000 -0.6344
vn 0.8819 0.0000 -0.4714
vn 0.9569 0.0000 -0.2903
vn 0.9952 0.0000 -0.0980
vn 0.9952 0.0000 0.0980
vn 0.9569 0.0000 0.2903
vn 0.8819 0.0000 0.4714
vn 0.7730 0.0000 0.6344
vn 0.6344 0.0000 0.7730
vn 0.4714 0.0000 0.8819
vn 0.2903 0.0000 0.9569
vn 0.0980 0.0000 0.9952
vn -0.0980 0.0000 0.9952
vn -0.2903 0.0000 0.9569
vn -0.4714 0.0000 0.8819
vn -0.6344 0.0000 0.7730
vn -0.7730 0.0000 0.6344
vn -0.8819 0.0000 0.4714
vn -0.9569 0.0000 0.2903
vn -0.9952 0.0000 0.0980
vn -0.9952 0.0000 -0.0980
vn -0.9569 0.0000 -0.2903
vn -0.8819 0.0000 -0.4714
vn -0.7730 0.0000 -0.6344
vn -0.6344 0.0000 -0.7730
vn -0.4714 0.0000 -0.8819
vn 0.0000 1.0000 0.0000
vn -0.2903 0.0000 -0.9569
vn -0.0980 0.0000 -0.9952
vn 0.0000 -1.0000 0.0000
vn 0.0000 1.0000 0.0001
usemtl None
s off
f 44/64/81 45/65/81 43/66/81
f 46/67/82 47/68/82 45/65/82
f 48/69/83 49/70/83 47/68/83
f 50/71/84 51/72/84 49/70/84
f 52/73/85 53/74/85 51/72/85
f 54/75/86 55/76/86 53/74/86
f 56/77/87 57/78/87 55/76/87
f 58/79/88 59/80/88 57/78/88
f 60/81/89 61/82/89 59/80/89
f 62/83/90 63/84/90 61/82/90
f 64/85/91 65/86/91 63/84/91
f 66/87/92 67/88/92 65/86/92
f 68/89/93 69/90/93 67/88/93
f 70/91/94 71/92/94 69/90/94
f 72/93/95 73/94/95 71/92/95
f 74/95/96 75/96/96 73/94/96
f 76/97/97 77/98/97 75/96/97
f 78/99/98 79/100/98 77/98/98
f 80/101/99 81/102/99 79/100/99
f 82/103/100 83/104/100 81/102/100
f 84/105/101 85/106/101 83/104/101
f 86/107/102 87/108/102 85/106/102
f 88/109/103 89/110/103 87/108/103
f 90/111/104 91/112/104 89/110/104
f 92/113/105 93/114/105 91/112/105
f 94/115/106 95/116/106 93/114/106
f 96/117/107 97/118/107 95/116/107
f 98/119/108 99/120/108 97/118/108
f 100/121/109 101/122/109 99/120/109
f 102/123/110 103/124/110 101/122/110
f 96/125/111 80/126/111 64/127/111
f 104/128/112 105/129/112 103/124/112
f 106/130/113 43/131/113 105/129/113
f 57/132/114 73/133/114 89/134/114
f 44/64/81 46/67/81 45/65/81
f 46/67/82 48/69/82 47/68/82
f 48/69/83 50/71/83 49/70/83
f 50/71/84 52/73/84 51/72/84
f 52/73/85 54/75/85 53/74/85
f 54/75/86 56/77/86 55/76/86
f 56/77/87 58/79/87 57/78/87
f 58/79/88 60/81/88 59/80/88
f 60/81/89 62/83/89 61/82/89
f 62/83/90 64/85/90 63/84/90
f 64/85/91 66/87/91 65/86/91
f 66/87/92 68/89/92 67/88/92
f 68/89/93 70/91/93 69/90/93
f 70/91/94 72/93/94 71/92/94
f 72/93/95 74/95/95 73/94/95
f 74/95/96 76/97/96 75/96/96
f 76/97/97 78/99/97 77/98/97
f 78/99/98 80/101/98 79/100/98
f 80/101/99 82/103/99 81/102/99
f 82/103/100 84/105/100 83/104/100
f 84/105/101 86/107/101 85/106/101
f 86/107/102 88/109/102 87/108/102
f 88/109/103 90/111/103 89/110/103
f 90/111/104 92/113/104 91/112/104
f 92/113/105 94/115/105 93/114/105
f 94/115/106 96/117/106 95/116/106
f 96/117/107 98/119/107 97/118/107
f 98/119/108 100/121/108 99/120/108
f 100/121/109 102/123/109 101/122/109
f 102/123/110 104/128/110 103/124/110
f 48/135/111 46/136/111 104/137/111
f 46/136/111 44/138/111 104/137/111
f 44/138/111 106/139/111 104/137/111
f 104/137/111 102/140/111 100/141/111
f 100/141/111 98/142/111 104/137/111
f 98/142/111 96/125/111 104/137/111
f 96/125/111 94/143/111 92/144/111
f 92/144/111 90/145/111 88/146/111
f 88/146/111 86/147/111 84/148/111
f 84/148/111 82/149/111 80/126/111
f 80/126/115 78/150/115 76/151/115
f 76/151/111 74/152/111 72/153/111
f 72/153/111 70/154/111 68/155/111
f 68/155/111 66/156/111 64/127/111
f 64/127/111 62/157/111 60/158/111
f 60/158/111 58/159/111 56/160/111
f 56/160/111 54/161/111 52/162/111
f 52/162/111 50/163/111 48/135/111
f 96/125/111 92/144/111 80/126/111
f 92/144/111 88/146/111 80/126/111
f 88/146/111 84/148/111 80/126/111
f 80/126/111 76/151/111 72/153/111
f 72/153/111 68/155/111 80/126/111
f 68/155/111 64/127/111 80/126/111
f 64/127/111 60/158/111 48/135/111
f 60/158/111 56/160/111 48/135/111
f 56/160/111 52/162/111 48/135/111
f 48/135/111 104/137/111 96/125/111
f 48/135/111 96/125/111 64/127/111
f 104/128/112 106/130/112 105/129/112
f 106/130/113 44/164/113 43/131/113
f 105/165/114 43/166/114 45/167/114
f 45/167/114 47/168/114 49/169/114
f 49/169/114 51/170/114 53/171/114
f 53/171/114 55/172/114 57/132/114
f 57/132/114 59/173/114 61/174/114
f 61/174/114 63/175/114 65/176/114
f 65/176/114 67/177/114 69/178/114
f 69/178/114 71/179/114 73/133/114
f 73/133/114 75/180/114 77/181/114
f 77/181/114 79/182/114 81/183/114
f 81/183/114 83/184/114 85/185/114
f 85/185/114 87/186/114 89/134/114
f 89/134/114 91/187/114 93/188/114
f 93/188/114 95/189/114 89/134/114
f 95/189/114 97/190/114 89/134/114
f 97/190/114 99/191/114 101/192/114
f 101/192/114 103/193/114 97/190/114
f 103/193/114 105/165/114 97/190/114
f 105/165/114 45/167/114 57/132/114
f 45/167/114 49/169/114 57/132/114
f 49/169/114 53/171/114 57/132/114
f 57/132/114 61/174/114 65/176/114
f 65/176/114 69/178/114 57/132/114
f 69/178/114 73/133/114 57/132/114
f 73/133/114 77/181/114 89/134/114
f 77/181/114 81/183/114 89/134/114
f 81/183/114 85/185/114 89/134/114
f 89/134/114 97/190/114 105/165/114
f 105/165/114 57/132/114 89/134/114