# Blender v3.1.2 OBJ File: 'building3.blend'
# www.blender.org
mtllib building3.mtl
o Cube.002_Cube
v -4.000000 0.000000 2.000000
v -4.000000 4.000000 2.000000
v -4.000000 0.000000 -2.000000
v -4.000000 4.000000 -2.000000
v 4.000000 0.000000 2.000000
v 4.000000 4.000000 2.000000
v 4.000000 0.000000 -2.000000
v 4.000000 4.000000 -2.000000
v -5.250000 4.000000 3.000000
v -5.250000 7.000000 0.000000
v -5.250000 4.000000 -3.000000
v 5.250000 4.000000 3.000000
v 5.250000 7.000000 0.000000
v 5.250000 4.000000 -3.000000
v -0.175000 0.000000 0.900000
v -0.175000 3.000000 0.900000
v -0.175000 0.000000 -2.100000
v -0.175000 3.000000 -2.100000
v -0.025000 0.000000 0.900000
v -0.025000 3.000000 0.900000
v -0.025000 0.000000 -2.100000
v -0.025000 3.000000 -2.100000
v -1.500000 2.925000 0.900000
v -1.500000 3.075000 0.900000
v -1.500000 2.925000 -2.100000
v -1.500000 3.075000 -2.100000
v 1.500000 2.925000 0.900000
v 1.500000 3.075000 0.900000
v 1.500000 2.925000 -2.100000
v 1.500000 3.075000 -2.100000
v -1.525000 0.000000 0.900000
v -1.525000 3.000000 0.900000
v -1.525000 0.000000 -2.100000
v -1.525000 3.000000 -2.100000
v -1.375000 0.000000 0.900000
v -1.375000 3.000000 0.900000
v -1.375000 0.000000 -2.100000
v -1.375000 3.000000 -2.100000
v 1.375000 0.000000 0.900000
v 1.375000 3.000000 0.900000
v 1.375000 0.000000 -2.100000
v 1.375000 3.000000 -2.100000
v 1.525000 0.000000 0.900000
v 1.525000 3.000000 0.900000
v 1.525000 0.000000 -2.100000
v 1.525000 3.000000 -2.100000
v 0.025000 0.000000 0.900000
v 0.025000 3.000000 0.900000
v 0.025000 0.000000 -2.100000
v 0.025000 3.000000 -2.100000
v 0.175000 0.000000 0.900000
v 0.175000 3.000000 0.900000
v 0.175000 0.000000 -2.100000
v 0.175000 3.000000 -2.100000
v -1.500000 -0.025000 0.900000
v -1.500000 0.125000 0.900000
v -1.500000 -0.025000 -2.100000
v -1.500000 0.125000 -2.100000
v 1.500000 -0.025000 0.900000
v 1.500000 0.125000 0.900000
v 1.500000 -0.025000 -2.100000
v 1.500000 0.125000 -2.100000
v -1.500000 0.000000 0.950000
v -1.500000 3.000000 0.950000
v -1.500000 0.000000 -2.050000
v -1.500000 3.000000 -2.050000
v 1.500000 0.000000 0.950000
v 1.500000 3.000000 0.950000
v 1.500000 0.000000 -2.050000
v 1.500000 3.000000 -2.050000
vt 0.271484 0.021484
vt 0.021484 0.271484
vt 0.021484 0.021484
vt 0.271484 0.271484
vt 0.269531 0.029297
vt 0.166016 0.050781
vt 0.019531 0.021484
vt 0.269531 0.021484
vt 0.019531 0.271484
vt 0.019531 0.279297
vt 0.019531 0.029297
vt 0.119141 0.023438
vt 0.019531 0.976562
vt 0.257812 0.736328
vt 0.007812 0.736328
vt 0.007812 0.986328
vt 0.259766 0.746094
vt 0.009766 0.746094
vt 0.009766 0.996094
vt 0.125000 0.750000
vt 0.121094 0.859375
vt 0.625000 0.000000
vt 0.375000 0.250000
vt 0.375000 0.000000
vt 0.992188 0.005859
vt 0.742188 0.255859
vt 0.742188 0.005859
vt 0.625000 0.500000
vt 0.375000 0.750000
vt 0.375000 0.500000
vt 0.625000 0.750000
vt 0.375000 1.000000
vt 0.125000 0.750000
vt 0.125000 0.500000
vt 0.875000 0.500000
vt 0.625000 0.000000
vt 0.375000 0.250000
vt 0.375000 0.000000
vt 0.992188 0.005859
vt 0.742188 0.255859
vt 0.742188 0.005859
vt 0.625000 0.500000
vt 0.375000 0.750000
vt 0.375000 0.500000
vt 0.625000 0.750000
vt 0.375000 1.000000
vt 0.125000 0.750000
vt 0.125000 0.500000
vt 0.875000 0.500000
vt 0.625000 0.000000
vt 0.375000 0.250000
vt 0.375000 0.000000
vt 0.992188 0.005859
vt 0.742188 0.255859
vt 0.742188 0.005859
vt 0.625000 0.500000
vt 0.375000 0.750000
vt 0.375000 0.500000
vt 0.625000 0.750000
vt 0.375000 1.000000
vt 0.125000 0.750000
vt 0.125000 0.500000
vt 0.875000 0.500000
vt 0.625000 0.000000
vt 0.375000 0.250000
vt 0.375000 0.000000
vt 0.992188 0.005859
vt 0.742188 0.255859
vt 0.742188 0.005859
vt 0.625000 0.500000
vt 0.375000 0.750000
vt 0.375000 0.500000
vt 0.625000 0.750000
vt 0.375000 1.000000
vt 0.125000 0.750000
vt 0.125000 0.500000
vt 0.875000 0.500000
vt 0.625000 0.000000
vt 0.375000 0.250000
vt 0.375000 0.000000
vt 0.992188 0.005859
vt 0.742188 0.255859
vt 0.742188 0.005859
vt 0.625000 0.500000
vt 0.375000 0.750000
vt 0.375000 0.500000
vt 0.625000 0.750000
vt 0.375000 1.000000
vt 0.125000 0.750000
vt 0.125000 0.500000
vt 0.875000 0.500000
vt 0.625000 0.000000
vt 0.375000 0.250000
vt 0.375000 0.000000
vt 0.992188 0.005859
vt 0.742188 0.255859
vt 0.742188 0.005859
vt 0.625000 0.500000
vt 0.375000 0.750000
vt 0.375000 0.500000
vt 0.625000 0.750000
vt 0.375000 1.000000
vt 0.125000 0.750000
vt 0.125000 0.500000
vt 0.875000 0.500000
vt 0.625000 0.000000
vt 0.375000 0.250000
vt 0.375000 0.000000
vt 0.625000 0.250000
vt 0.375000 0.500000
vt 0.625000 0.500000
vt 0.375000 0.750000
vt 0.625000 0.750000
vt 0.375000 1.000000
vt 0.125000 0.750000
vt 0.125000 0.500000
vt 0.875000 0.500000
vt 0.269531 0.271484
vt 0.119141 0.273438
vt 0.257812 0.986328
vt 0.259766 0.996094
vt 0.625000 0.250000
vt 0.992188 0.255859
vt 0.625000 1.000000
vt 0.875000 0.750000
vt 0.625000 0.250000
vt 0.992188 0.255859
vt 0.625000 1.000000
vt 0.875000 0.750000
vt 0.625000 0.250000
vt 0.992188 0.255859
vt 0.625000 1.000000
vt 0.875000 0.750000
vt 0.625000 0.250000
vt 0.992188 0.255859
vt 0.625000 1.000000
vt 0.875000 0.750000
vt 0.625000 0.250000
vt 0.992188 0.255859
vt 0.625000 1.000000
vt 0.875000 0.750000
vt 0.625000 0.250000
vt 0.992188 0.255859
vt 0.625000 1.000000
vt 0.875000 0.750000
vt 0.625000 1.000000
vt 0.875000 0.750000
vn -1.0000 0.0000 0.0000
vn 0.0000 0.0000 -1.0000
vn 1.0000 0.0000 0.0000
vn 0.0000 0.0000 1.0000
vn 0.0000 -1.0000 0.0000
vn 0.0000 1.0000 0.0000
vn 0.0000 0.7071 -0.7071
vn 0.0000 0.7071 0.7071
usemtl Material
s off
f 2/1/1 3/2/1 1/3/1
f 4/4/2 7/5/2 3/2/2
f 8/6/3 5/7/3 7/5/3
f 6/8/4 1/9/4 5/7/4
f 7/5/5 1/10/5 3/11/5
f 4/12/6 6/8/6 8/6/6
f 9/13/1 10/14/1 11/15/1
f 10/14/7 14/16/7 11/15/7
f 14/16/3 13/17/3 12/18/3
f 13/17/8 9/19/8 12/18/8
f 14/16/5 9/20/5 11/21/5
f 16/22/1 17/23/1 15/24/1
f 18/25/2 21/26/2 17/27/2
f 22/28/3 19/29/3 21/30/3
f 20/31/4 15/32/4 19/29/4
f 21/30/5 15/33/5 17/34/5
f 18/35/6 20/31/6 22/28/6
f 24/36/1 25/37/1 23/38/1
f 26/39/2 29/40/2 25/41/2
f 30/42/3 27/43/3 29/44/3
f 28/45/4 23/46/4 27/43/4
f 29/44/5 23/47/5 25/48/5
f 26/49/6 28/45/6 30/42/6
f 32/50/1 33/51/1 31/52/1
f 34/53/2 37/54/2 33/55/2
f 38/56/3 35/57/3 37/58/3
f 36/59/4 31/60/4 35/57/4
f 37/58/5 31/61/5 33/62/5
f 34/63/6 36/59/6 38/56/6
f 40/64/1 41/65/1 39/66/1
f 42/67/2 45/68/2 41/69/2
f 46/70/3 43/71/3 45/72/3
f 44/73/4 39/74/4 43/71/4
f 45/72/5 39/75/5 41/76/5
f 42/77/6 44/73/6 46/70/6
f 48/78/1 49/79/1 47/80/1
f 50/81/2 53/82/2 49/83/2
f 54/84/3 51/85/3 53/86/3
f 52/87/4 47/88/4 51/85/4
f 53/86/5 47/89/5 49/90/5
f 50/91/6 52/87/6 54/84/6
f 56/92/1 57/93/1 55/94/1
f 58/95/2 61/96/2 57/97/2
f 62/98/3 59/99/3 61/100/3
f 60/101/4 55/102/4 59/99/4
f 61/100/5 55/103/5 57/104/5
f 58/105/6 60/101/6 62/98/6
f 64/106/1 65/107/1 63/108/1
f 66/109/2 69/110/2 65/107/2
f 70/111/3 67/112/3 69/110/3
f 68/113/4 63/114/4 67/112/4
f 69/110/5 63/115/5 65/116/5
f 66/117/6 68/113/6 70/111/6
f 2/1/1 4/4/1 3/2/1
f 4/4/2 8/6/2 7/5/2
f 8/6/3 6/8/3 5/7/3
f 6/8/4 2/118/4 1/9/4
f 7/5/5 5/7/5 1/10/5
f 4/12/6 2/119/6 6/8/6
f 10/14/7 13/120/7 14/16/7
f 13/17/8 10/121/8 9/19/8
f 14/16/5 12/18/5 9/20/5
f 16/22/1 18/122/1 17/23/1
f 18/25/2 22/123/2 21/26/2
f 22/28/3 20/31/3 19/29/3
f 20/31/4 16/124/4 15/32/4
f 21/30/5 19/29/5 15/33/5
f 18/35/6 16/125/6 20/31/6
f 24/36/1 26/126/1 25/37/1
f 26/39/2 30/127/2 29/40/2
f 30/42/3 28/45/3 27/43/3
f 28/45/4 24/128/4 23/46/4
f 29/44/5 27/43/5 23/47/5
f 26/49/6 24/129/6 28/45/6
f 32/50/1 34/130/1 33/51/1
f 34/53/2 38/131/2 37/54/2
f 38/56/3 36/59/3 35/57/3
f 36/59/4 32/132/4 31/60/4
f 37/58/5 35/57/5 31/61/5
f 34/63/6 32/133/6 36/59/6
f 40/64/1 42/134/1 41/65/1
f 42/67/2 46/135/2 45/68/2
f 46/70/3 44/73/3 43/71/3
f 44/73/4 40/136/4 39/74/4
f 45/72/5 43/71/5 39/75/5
f 42/77/6 40/137/6 44/73/6
f 48/78/1 50/138/1 49/79/1
f 50/81/2 54/139/2 53/82/2
f 54/84/3 52/87/3 51/85/3
f 52/87/4 48/140/4 47/88/4
f 53/86/5 51/85/5 47/89/5
f 50/91/6 48/141/6 52/87/6
f 56/92/1 58/142/1 57/93/1
f 58/95/2 62/143/2 61/96/2
f 62/98/3 60/101/3 59/99/3
f 60/101/4 56/144/4 55/102/4
f 61/100/5 59/99/5 55/103/5
f 58/105/6 56/145/6 60/101/6
f 64/106/1 66/109/1 65/107/1
f 66/109/2 70/111/2 69/110/2
f 70/111/3 68/113/3 67/112/3
f 68/113/4 64/146/4 63/114/4
f 69/110/5 67/112/5 63/115/5
f 66/117/6 64/147/6 68/113/6
